<?xml version="1.0" standalone="no"?>
<!DOCTYPE svg PUBLIC "-//W3C//DTD SVG 20010904//EN"
 "http://www.w3.org/TR/2001/REC-SVG-20010904/DTD/svg10.dtd">
<svg version="1.0" xmlns="http://www.w3.org/2000/svg"
 width="1072.000000pt" height="1072.000000pt" viewBox="0 0 1072.000000 1072.000000"
 preserveAspectRatio="xMidYMid meet">
<metadata>
Created by potrace 1.14, written by Peter Selinger 2001-2017
</metadata>
<g transform="translate(0.000000,1072.000000) scale(0.100000,-0.100000)"
fill="#000000" stroke="none">
<path d="M427 10233 c-8 -14 -5 -313 3 -308 5 3 11 1 14 -4 5 -8 65 -6 74 3 2
3 14 1 26 -4 13 -4 29 -4 39 1 9 6 17 6 17 1 0 -8 69 -7 77 2 3 3 15 1 27 -4
13 -4 29 -4 39 1 9 6 17 6 17 2 0 -4 23 -8 50 -8 28 0 50 4 50 8 0 4 8 3 18
-2 13 -7 22 -7 29 0 7 7 13 7 17 1 4 -7 17 -7 36 -2 17 5 30 6 30 2 0 -4 11
-7 25 -7 14 0 25 3 25 7 0 4 10 4 23 0 24 -8 67 -8 88 0 8 3 23 2 34 -2 11 -4
28 -3 38 2 10 5 17 5 17 0 0 -5 18 -6 40 -2 22 4 40 5 40 1 0 -3 13 -6 29 -6
16 0 27 3 24 7 -2 5 7 4 21 -2 15 -5 26 -6 26 0 0 5 12 5 30 0 19 -5 28 -5 25
1 -4 5 4 5 19 -1 16 -6 27 -6 31 1 4 5 13 6 22 1 8 -5 33 -6 54 -2 21 4 39 5
39 1 0 -3 13 -6 29 -6 16 0 27 3 24 7 -2 5 7 4 21 -2 15 -5 26 -6 26 0 0 5 12
5 30 0 19 -5 28 -5 25 1 -4 5 4 5 19 -1 16 -6 27 -6 31 1 4 5 11 7 16 3 14 -8
119 -10 119 -2 0 4 14 3 30 -2 18 -5 28 -5 25 1 -3 5 1 6 10 3 22 -9 195 -11
220 -3 11 3 29 3 40 -1 11 -4 28 -3 38 2 9 5 17 5 17 1 0 -4 23 -8 50 -8 28 0
50 4 50 8 0 4 8 3 18 -2 13 -7 22 -7 29 0 7 7 13 7 17 1 4 -7 17 -7 36 -2 17
5 30 6 30 2 0 -4 11 -7 25 -7 14 0 25 3 25 7 0 4 10 4 23 0 24 -8 67 -8 88 0
8 3 23 2 34 -2 11 -4 28 -3 38 2 9 5 17 5 17 1 0 -4 23 -8 50 -8 28 0 50 3 50
7 0 4 14 3 30 -2 21 -6 28 -5 24 2 -5 7 -2 8 6 3 16 -10 214 -10 229 -1 6 4
11 4 11 -1 0 -4 13 -8 29 -8 16 0 27 3 24 7 -2 5 7 4 21 -2 15 -5 26 -6 26 0
0 5 12 5 30 0 19 -5 28 -5 25 1 -4 5 4 5 19 -1 16 -6 27 -6 31 1 4 5 13 6 22
0 9 -4 31 -5 49 -1 18 4 35 5 38 3 3 -3 49 -7 103 -9 86 -4 125 -8 143 -14 3
-1 9 -2 14 -1 38 7 372 -79 461 -118 36 -16 60 -24 68 -23 4 1 7 -3 7 -8 0 -5
3 -9 8 -8 10 3 146 -63 150 -74 2 -4 7 -6 12 -3 4 3 13 -2 20 -10 7 -8 16 -15
21 -15 12 0 123 -72 127 -82 2 -5 8 -8 13 -8 14 0 129 -92 129 -103 0 -6 3 -8
6 -4 7 6 54 -35 151 -133 204 -205 368 -467 467 -748 25 -70 64 -212 72 -262
2 -14 7 -36 10 -50 7 -33 17 -126 17 -167 1 -18 3 -33 6 -33 9 0 4 -1406 -5
-1480 -4 -36 -8 -75 -8 -87 0 -13 -2 -23 -5 -23 -4 0 -7 -19 -8 -42 -2 -23 -7
-56 -13 -73 -5 -16 -11 -41 -14 -55 -8 -43 -45 -161 -72 -234 -33 -87 -133
-290 -145 -294 -5 -2 -9 -8 -9 -14 0 -5 -20 -41 -45 -79 -46 -72 -56 -86 -87
-120 -10 -10 -18 -22 -18 -25 0 -18 -241 -259 -326 -327 -97 -76 -222 -156
-335 -215 -98 -51 -251 -115 -275 -115 -8 0 -14 -4 -14 -9 0 -4 -3 -7 -7 -7
-5 1 -10 0 -13 -1 -3 -1 -12 -3 -20 -5 -8 -2 -49 -12 -90 -24 -77 -21 -213
-46 -310 -57 -30 -3 -498 -8 -1040 -9 -542 -2 -992 -6 -1000 -8 -71 -18 -104
-36 -149 -79 -73 -70 -95 -124 -96 -223 0 -128 21 -161 228 -348 47 -43 96
-88 109 -99 35 -30 177 -159 216 -195 18 -18 35 -33 37 -33 2 0 19 -15 37 -32
19 -18 72 -67 118 -108 46 -41 100 -91 121 -110 20 -19 62 -57 94 -85 31 -27
69 -61 84 -75 14 -14 64 -59 110 -100 46 -41 100 -91 121 -110 20 -19 68 -63
107 -97 38 -34 83 -74 100 -90 17 -15 61 -55 98 -88 37 -33 89 -80 116 -105
26 -25 73 -67 104 -95 32 -27 69 -61 84 -75 14 -14 71 -65 126 -114 55 -49
107 -96 116 -105 16 -16 162 -149 203 -184 39 -34 180 -162 206 -187 15 -14
59 -54 100 -90 40 -36 92 -83 116 -105 23 -22 59 -55 80 -74 55 -47 192 -170
230 -206 17 -16 64 -59 104 -95 40 -36 85 -76 100 -90 15 -14 55 -50 89 -80
34 -30 79 -71 100 -90 37 -34 159 -145 255 -231 27 -24 59 -53 70 -64 12 -11
66 -60 121 -110 55 -49 107 -96 116 -105 14 -13 128 -115 182 -163 19 -16 21
-16 49 15 51 57 163 180 175 193 9 10 3 20 -30 48 -23 19 -63 55 -88 79 -25
23 -79 72 -119 108 -40 36 -92 83 -115 105 -24 22 -58 53 -76 69 -41 36 -205
183 -235 211 -18 17 -81 74 -200 180 -46 42 -188 171 -214 195 -15 14 -60 54
-100 90 -94 84 -196 176 -238 217 -19 18 -36 33 -39 33 -2 0 -19 15 -37 32
-18 18 -70 67 -116 108 -47 41 -100 90 -118 107 -19 18 -36 33 -38 33 -1 0
-14 10 -26 22 -13 13 -66 61 -117 108 -52 47 -110 100 -128 117 -19 18 -36 33
-38 33 -2 0 -19 15 -37 33 -28 26 -163 149 -212 192 -41 37 -223 201 -232 210
-6 6 -46 42 -89 81 -42 38 -87 78 -99 89 -12 11 -60 54 -105 95 -46 41 -96 86
-111 100 -15 14 -65 59 -110 100 -46 41 -92 84 -104 95 -12 11 -84 76 -161
144 -77 69 -147 132 -156 140 -18 18 -181 167 -213 194 -12 10 -59 53 -105 95
-46 42 -91 84 -101 92 -85 75 -170 154 -170 159 0 3 429 6 953 5 523 0 956 2
962 5 5 3 26 6 45 7 57 3 235 28 235 34 0 1 11 3 25 5 35 5 184 43 217 56 16
6 35 12 44 14 18 4 133 48 189 72 322 142 612 352 831 604 30 34 60 68 67 75
6 7 12 15 12 19 0 3 10 17 23 30 34 36 178 250 181 270 1 6 14 30 28 55 23 39
56 107 103 215 37 84 112 337 130 440 2 17 7 39 9 50 5 26 15 114 23 190 3 33
6 373 6 755 1 590 -3 772 -17 870 -2 8 -6 40 -11 70 -9 65 -10 70 -25 135 -7
28 -14 59 -15 70 -2 11 -4 21 -5 23 -2 1 -3 5 -4 10 -18 66 -51 169 -69 212
-6 14 -11 27 -12 30 -1 3 -7 18 -13 33 -7 16 -12 30 -12 33 0 3 -23 51 -52
107 -74 147 -81 161 -90 172 -4 6 -32 46 -61 90 -47 73 -96 141 -122 172 -140
163 -215 238 -363 366 -17 15 -36 27 -41 27 -5 0 -11 4 -13 9 -1 4 -46 37 -98
72 -121 80 -127 85 -170 106 -19 9 -37 19 -40 22 -5 6 -84 45 -160 79 -106 47
-144 62 -160 62 -9 0 -20 3 -24 7 -3 4 -12 8 -19 9 -7 2 -28 8 -47 15 -38 13
-59 20 -75 25 -5 2 -26 6 -45 9 -19 3 -42 9 -50 12 -23 9 -45 14 -175 34 -38
6 -81 13 -95 17 -37 9 -3368 14 -3373 5z"/>
<path d="M373 9765 c-56 -15 -141 -54 -168 -76 -106 -88 -164 -176 -194 -294
-8 -27 -11 -1452 -11 -4478 l0 -4437 239 0 239 0 4 24 c3 14 1 30 -3 37 -4 7
-3 21 2 30 6 11 5 20 -1 24 -6 4 -7 12 -1 23 5 9 5 26 0 39 -5 13 -5 23 -1 23
4 0 7 11 7 25 0 14 -3 25 -7 25 -4 0 -3 11 2 25 5 14 5 27 0 30 -5 3 -5 18 0
34 4 15 4 34 0 42 -5 7 -4 21 1 30 6 11 5 20 -1 24 -6 4 -7 12 -1 23 5 9 5 26
0 39 -5 13 -5 23 -1 23 4 0 7 11 7 25 0 14 -3 25 -7 25 -4 0 -3 11 2 25 6 15
6 26 0 30 -6 4 -7 13 -1 23 6 11 6 24 0 34 -6 10 -6 19 0 23 7 4 7 15 1 30 -5
14 -6 25 -2 25 4 0 7 11 7 25 0 14 -4 25 -8 25 -5 0 -5 4 -2 10 8 13 12 90 5
90 -7 0 -4 66 5 79 3 6 1 11 -5 11 -8 0 -8 6 0 20 8 14 8 20 0 20 -8 0 -8 6 0
20 8 14 8 20 0 20 -6 0 -8 5 -4 12 9 15 11 278 2 278 -4 0 -3 11 2 24 5 15 5
27 -2 34 -8 8 -8 15 1 26 8 10 9 16 1 21 -7 4 -7 12 0 26 8 13 7 19 0 19 -8 0
-8 6 0 20 8 14 8 20 0 20 -7 0 -8 6 -2 18 9 19 8 53 -2 70 -3 6 -2 13 3 17 7
4 7 15 1 30 -5 14 -6 25 -2 25 4 0 7 11 7 25 0 14 -4 25 -8 25 -5 0 -5 4 -2
10 8 13 12 90 5 90 -4 0 -4 22 0 50 3 27 3 55 -1 62 -4 6 -3 20 2 29 6 11 5
20 -1 24 -6 4 -7 12 -1 23 5 9 5 26 0 39 -5 13 -5 23 -1 23 4 0 7 11 7 25 0
14 -3 25 -7 25 -4 0 -3 11 2 25 5 14 5 27 0 30 -5 3 -5 18 0 34 4 15 4 34 0
42 -5 7 -4 21 1 30 6 11 5 20 -1 24 -6 4 -7 12 -1 23 5 9 5 26 0 39 -5 13 -5
23 -1 23 4 0 7 11 7 25 0 14 -3 25 -7 25 -4 0 -3 11 2 25 6 15 6 26 0 30 -6 4
-7 13 -1 23 6 11 6 24 0 34 -6 10 -6 19 0 23 7 4 7 15 1 30 -5 14 -6 25 -2 25
4 0 7 11 7 25 0 14 -4 25 -8 25 -5 0 -5 4 -2 10 8 13 12 90 5 90 -7 0 -4 66 5
79 3 6 1 11 -5 11 -8 0 -8 6 0 20 8 14 8 20 0 20 -8 0 -8 6 0 20 8 14 8 20 0
20 -6 0 -8 5 -4 12 9 15 11 278 2 278 -4 0 -3 11 2 24 5 15 5 27 -2 34 -8 8
-8 15 1 26 8 10 9 16 1 21 -7 4 -7 12 0 26 8 13 7 19 0 19 -8 0 -8 6 0 20 8
14 8 20 0 20 -7 0 -8 6 -2 18 9 19 8 53 -2 70 -3 6 -2 13 3 17 7 4 7 15 1 30
-5 14 -6 25 -2 25 4 0 7 11 7 25 0 14 -4 25 -8 25 -5 0 -5 4 -2 10 8 13 12 90
5 90 -4 0 -4 22 0 50 3 27 3 55 -1 62 -4 6 -3 20 2 29 6 11 5 20 -1 24 -6 4
-7 12 -1 23 5 9 5 26 0 39 -5 13 -5 23 -1 23 4 0 7 11 7 25 0 14 -3 25 -7 25
-4 0 -3 11 2 25 5 14 5 27 0 30 -5 3 -5 18 0 34 4 15 4 34 0 42 -5 7 -4 21 1
30 6 11 5 20 -1 24 -6 4 -7 12 -1 23 5 9 5 26 0 39 -5 13 -5 23 -1 23 4 0 7
11 7 25 0 14 -3 25 -7 25 -4 0 -3 11 2 25 6 15 6 26 0 30 -6 4 -7 13 -1 23 6
11 6 24 0 34 -6 10 -6 19 0 23 7 4 7 15 1 30 -5 14 -6 25 -2 25 4 0 7 11 7 25
0 14 -4 25 -8 25 -5 0 -5 4 -2 10 8 13 12 90 5 90 -7 0 -4 66 5 79 3 6 1 11
-5 11 -8 0 -8 6 0 20 8 14 8 20 0 20 -8 0 -8 6 0 20 8 14 8 20 0 20 -6 0 -8 5
-4 12 9 15 11 278 2 278 -4 0 -3 11 2 24 5 15 5 27 -2 34 -8 8 -8 15 1 26 8
10 9 16 1 21 -7 4 -7 12 0 26 8 13 7 19 0 19 -8 0 -8 6 0 20 8 14 8 20 0 20
-7 0 -8 6 -2 18 9 19 8 53 -2 70 -3 6 -2 13 3 17 7 4 7 15 1 30 -5 14 -6 25
-2 25 4 0 7 11 7 25 0 14 -4 25 -8 25 -5 0 -5 4 -2 10 8 13 12 90 5 90 -4 0
-4 22 0 50 3 27 3 55 -1 62 -4 6 -3 20 2 29 6 11 5 20 -1 24 -6 4 -7 12 -1 23
5 9 5 26 0 39 -5 13 -5 23 -1 23 4 0 7 11 7 25 0 14 -3 25 -7 25 -4 0 -3 11 2
25 5 14 5 27 0 30 -5 3 -5 18 0 34 4 15 4 34 0 42 -5 7 -4 21 1 30 6 11 5 20
-1 24 -6 4 -7 12 -1 23 5 9 5 26 0 39 -5 13 -5 23 -1 23 4 0 7 11 7 25 0 14
-3 25 -7 25 -4 0 -3 11 2 25 6 15 6 26 0 30 -6 4 -7 13 -1 23 6 11 6 24 0 34
-6 10 -6 19 0 23 7 4 7 15 1 30 -5 14 -6 25 -2 25 4 0 7 11 7 25 0 14 -4 25
-8 25 -5 0 -5 4 -2 10 8 13 12 90 5 90 -7 0 -4 66 5 79 3 6 1 11 -5 11 -8 0
-8 6 0 20 8 14 8 20 0 20 -8 0 -8 6 0 20 8 14 8 20 0 20 -6 0 -8 5 -4 12 9 15
11 278 2 278 -4 0 -3 11 2 24 5 15 5 27 -2 34 -8 8 -8 15 1 26 8 10 9 16 1 21
-7 4 -7 12 0 26 8 13 7 19 0 19 -8 0 -8 6 0 20 8 14 8 20 0 20 -7 0 -8 6 -2
18 9 19 8 53 -2 70 -3 6 -2 13 3 17 7 4 7 15 1 30 -5 14 -6 25 -2 25 4 0 7 11
7 25 0 14 -4 25 -8 25 -5 0 -5 4 -2 10 8 13 12 90 5 90 -4 0 -4 22 0 50 3 27
3 55 -1 62 -4 6 -3 20 2 29 6 11 5 20 -1 24 -6 4 -7 12 -1 23 5 9 5 26 0 39
-5 13 -5 23 -1 23 4 0 7 11 7 25 0 14 -3 25 -7 25 -4 0 -3 11 2 25 5 14 5 27
0 30 -5 3 -5 18 0 34 4 15 4 34 0 42 -5 7 -4 21 1 30 6 11 5 20 -1 24 -6 4 -7
12 -1 23 5 9 5 26 0 39 -5 13 -5 23 -1 23 4 0 7 11 7 25 0 14 -3 25 -7 25 -4
0 -3 11 2 25 6 15 6 26 0 30 -6 4 -7 13 -1 23 6 11 6 24 0 34 -6 10 -6 19 0
23 7 4 7 15 1 30 -5 14 -6 25 -2 25 4 0 7 11 7 25 0 14 -4 25 -8 25 -5 0 -5 4
-2 10 8 13 12 90 5 90 -7 0 -4 66 5 79 3 6 1 11 -5 11 -8 0 -8 6 0 20 8 14 8
20 0 20 -8 0 -8 6 0 20 8 14 8 20 0 20 -7 0 -8 6 -2 18 5 9 7 23 4 30 -18 53
-19 53 1698 -1648 186 -184 649 -643 1030 -1020 380 -377 856 -848 1057 -1047
201 -200 370 -363 375 -363 6 0 84 75 174 166 l165 165 -330 327 c-181 180
-636 631 -1011 1002 -375 371 -862 854 -1083 1073 -1872 1855 -1773 1757
-1793 1757 -7 0 -14 4 -14 9 0 9 -58 35 -126 56 -56 17 -188 17 -251 0z"/>
<path d="M10145 9773 c-127 -26 -184 -57 -307 -170 -53 -48 -97 -91 -97 -95
-1 -4 -27 -31 -58 -62 -32 -30 -290 -284 -573 -565 -283 -281 -765 -758 -1070
-1060 -305 -303 -775 -768 -1045 -1035 -269 -267 -492 -486 -496 -486 -4 0
-11 -9 -14 -20 -3 -11 -9 -20 -13 -20 -4 0 -170 -162 -370 -359 l-362 -360
169 -170 169 -170 346 342 c190 189 615 609 943 935 329 326 801 793 1048
1038 248 245 750 743 1117 1107 367 363 675 665 684 670 11 6 19 5 25 -4 5 -8
4 -15 -1 -17 -6 -2 -6 -11 0 -23 8 -13 7 -19 0 -19 -7 0 -8 -6 -1 -18 7 -13 7
-22 0 -29 -8 -8 -7 -13 0 -17 8 -5 8 -13 1 -27 -8 -13 -7 -19 0 -19 8 0 8 -6
0 -20 -8 -14 -8 -20 0 -20 8 0 8 -6 0 -20 -8 -14 -8 -20 0 -20 8 0 8 -6 0 -20
-8 -14 -8 -20 0 -20 8 0 8 -6 0 -20 -8 -14 -8 -20 0 -20 8 0 8 -6 0 -20 -8
-14 -8 -20 0 -20 8 0 8 -6 0 -20 -8 -14 -8 -20 0 -20 8 0 8 -6 0 -20 -8 -14
-8 -20 0 -20 8 0 8 -6 0 -20 -8 -14 -8 -20 0 -20 8 0 8 -6 0 -20 -8 -14 -8
-20 0 -20 8 0 8 -6 0 -20 -8 -14 -8 -20 0 -20 8 0 8 -6 0 -20 -8 -14 -8 -20 0
-20 8 0 8 -6 0 -20 -8 -14 -8 -20 0 -20 8 0 8 -6 0 -20 -8 -14 -8 -20 0 -20 8
0 8 -6 0 -20 -8 -14 -8 -20 0 -20 8 0 8 -6 0 -20 -8 -14 -8 -20 0 -20 8 0 8
-6 0 -20 -8 -14 -8 -20 0 -20 8 0 8 -6 0 -20 -8 -14 -8 -20 0 -20 8 0 8 -6 0
-20 -8 -14 -8 -20 0 -20 8 0 8 -6 0 -20 -8 -14 -8 -20 0 -20 8 0 8 -6 0 -20
-8 -14 -8 -20 0 -20 8 0 8 -6 0 -20 -8 -14 -8 -20 0 -20 8 0 8 -6 0 -20 -8
-14 -8 -20 0 -20 8 0 8 -6 0 -20 -8 -14 -8 -20 0 -20 8 0 8 -6 0 -20 -8 -14
-8 -20 0 -20 8 0 8 -6 0 -20 -8 -14 -8 -20 0 -20 8 0 8 -6 0 -20 -8 -14 -8
-20 0 -20 8 0 8 -6 0 -20 -8 -14 -8 -20 0 -20 8 0 8 -6 0 -20 -8 -14 -8 -20 0
-20 8 0 8 -6 0 -20 -8 -14 -8 -20 0 -20 8 0 8 -6 0 -20 -8 -14 -8 -20 0 -20 8
0 8 -6 0 -20 -8 -14 -8 -20 0 -20 8 0 8 -6 0 -20 -8 -14 -8 -20 0 -20 8 0 8
-6 0 -20 -8 -14 -8 -20 0 -20 8 0 8 -6 0 -20 -8 -14 -8 -20 0 -20 8 0 8 -6 0
-20 -8 -14 -8 -20 0 -20 8 0 8 -6 0 -20 -8 -14 -8 -20 0 -20 8 0 8 -6 0 -20
-8 -14 -8 -20 0 -20 8 0 8 -6 0 -20 -8 -14 -8 -20 0 -20 8 0 8 -6 0 -20 -8
-14 -8 -20 0 -20 8 0 8 -6 0 -20 -8 -14 -8 -20 0 -20 8 0 8 -6 0 -20 -8 -14
-8 -20 0 -20 8 0 8 -6 0 -20 -8 -14 -8 -20 0 -20 8 0 8 -6 0 -20 -8 -14 -8
-20 0 -20 8 0 8 -6 0 -20 -8 -14 -8 -20 0 -20 8 0 8 -6 0 -20 -8 -14 -8 -20 0
-20 8 0 8 -6 0 -20 -8 -14 -8 -20 0 -20 8 0 8 -6 0 -20 -8 -14 -8 -20 0 -20 8
0 8 -6 0 -20 -8 -14 -8 -20 0 -20 8 0 8 -6 0 -20 -8 -14 -8 -20 0 -20 8 0 8
-6 0 -20 -8 -14 -8 -20 0 -20 8 0 8 -6 0 -20 -8 -14 -8 -20 0 -20 8 0 8 -6 0
-20 -8 -14 -8 -20 0 -20 8 0 8 -6 0 -20 -8 -14 -8 -20 0 -20 8 0 8 -6 0 -20
-8 -14 -8 -20 0 -20 8 0 8 -6 0 -20 -8 -14 -8 -20 0 -20 8 0 8 -6 0 -20 -8
-14 -8 -20 0 -20 8 0 8 -6 0 -20 -8 -14 -8 -20 0 -20 8 0 8 -6 0 -20 -8 -14
-8 -20 0 -20 8 0 8 -6 0 -20 -8 -14 -8 -20 0 -20 8 0 8 -6 0 -20 -8 -14 -8
-20 0 -20 8 0 8 -6 0 -20 -8 -14 -8 -20 0 -20 8 0 8 -6 0 -20 -8 -14 -8 -20 0
-20 8 0 8 -6 0 -20 -8 -14 -8 -20 0 -20 8 0 8 -6 0 -20 -8 -14 -8 -20 0 -20 8
0 8 -6 0 -20 -8 -14 -8 -20 0 -20 8 0 8 -6 0 -20 -8 -14 -8 -20 0 -20 8 0 8
-6 0 -20 -8 -14 -8 -20 0 -20 8 0 8 -6 0 -20 -8 -14 -8 -20 0 -20 8 0 8 -6 0
-20 -8 -14 -8 -20 0 -20 8 0 8 -6 0 -20 -8 -14 -8 -20 0 -20 8 0 8 -6 0 -20
-8 -14 -8 -20 0 -20 8 0 8 -6 0 -20 -8 -14 -8 -20 0 -20 8 0 8 -6 0 -20 -8
-14 -8 -20 0 -20 8 0 8 -6 0 -20 -8 -14 -8 -20 0 -20 8 0 8 -6 0 -20 -8 -14
-8 -20 0 -20 8 0 8 -6 0 -20 -8 -14 -8 -20 0 -20 8 0 8 -6 0 -20 -8 -14 -8
-20 0 -20 8 0 8 -6 0 -20 -8 -14 -8 -20 0 -20 8 0 8 -6 0 -20 -8 -14 -8 -20 0
-20 8 0 8 -6 0 -20 -8 -14 -8 -20 0 -20 8 0 8 -6 0 -20 -8 -14 -8 -20 0 -20 8
0 8 -6 0 -20 -8 -14 -8 -20 0 -20 8 0 8 -6 0 -20 -8 -14 -8 -20 0 -20 8 0 8
-6 0 -20 -8 -14 -8 -20 0 -20 8 0 8 -6 0 -20 -8 -14 -8 -20 0 -20 8 0 8 -6 0
-20 -8 -14 -8 -20 0 -20 8 0 8 -6 0 -20 -8 -14 -8 -20 0 -20 8 0 8 -6 0 -20
-8 -14 -8 -20 0 -20 8 0 8 -6 0 -20 -8 -14 -8 -20 0 -20 8 0 8 -6 0 -20 -8
-14 -8 -20 0 -20 8 0 8 -6 0 -20 -8 -14 -8 -20 0 -20 8 0 8 -6 0 -20 -8 -14
-8 -20 0 -20 8 0 8 -6 0 -20 -8 -14 -8 -20 0 -20 8 0 8 -6 0 -20 -8 -14 -8
-20 0 -20 8 0 8 -6 0 -20 -8 -14 -8 -20 0 -20 8 0 8 -6 0 -20 -8 -14 -8 -20 0
-20 8 0 8 -6 0 -20 -8 -14 -8 -20 0 -20 8 0 8 -6 0 -20 -8 -14 -8 -20 0 -20 8
0 8 -6 0 -20 -8 -14 -8 -20 0 -20 8 0 8 -6 0 -20 -8 -14 -8 -20 0 -20 8 0 8
-6 0 -20 -8 -14 -8 -20 0 -20 8 0 8 -6 0 -20 -8 -14 -8 -20 0 -20 8 0 8 -6 0
-20 -8 -14 -8 -20 0 -20 8 0 8 -6 0 -20 -8 -14 -8 -20 0 -20 8 0 8 -6 0 -20
-8 -14 -8 -20 0 -20 8 0 8 -6 0 -20 -8 -14 -8 -20 0 -20 8 0 8 -6 0 -20 -8
-14 -8 -20 0 -20 8 0 8 -6 0 -20 -8 -14 -8 -20 0 -20 8 0 8 -6 0 -20 -8 -14
-8 -20 0 -20 8 0 8 -6 0 -20 -8 -14 -8 -20 0 -20 8 0 8 -6 0 -20 -8 -14 -8
-20 0 -20 8 0 8 -6 0 -20 -8 -14 -8 -20 0 -20 8 0 8 -6 0 -20 -8 -14 -8 -20 0
-20 8 0 8 -6 0 -20 -8 -14 -8 -20 0 -20 8 0 8 -6 0 -20 -8 -14 -8 -20 0 -20 8
0 8 -6 0 -20 -8 -14 -8 -20 0 -20 8 0 8 -6 0 -20 -8 -14 -8 -20 0 -20 8 0 8
-6 0 -20 -8 -14 -8 -20 0 -20 8 0 8 -6 0 -20 -8 -14 -8 -20 0 -20 8 0 8 -6 0
-20 -8 -14 -8 -20 0 -20 8 0 8 -6 0 -20 -8 -14 -8 -20 0 -20 8 0 8 -6 0 -20
-8 -14 -8 -20 0 -20 8 0 8 -6 0 -20 -8 -14 -8 -20 0 -20 8 0 8 -6 0 -20 -8
-14 -8 -20 0 -20 8 0 8 -6 0 -20 -8 -14 -8 -20 0 -20 8 0 8 -6 0 -20 -8 -14
-8 -20 0 -20 8 0 8 -6 0 -20 -8 -14 -8 -20 0 -20 8 0 8 -6 0 -20 -8 -14 -8
-20 0 -20 8 0 8 -6 0 -20 -8 -14 -8 -20 0 -20 8 0 8 -6 0 -20 -8 -14 -8 -20 0
-20 8 0 8 -6 0 -20 -8 -14 -8 -20 0 -20 8 0 8 -6 0 -20 -8 -14 -8 -20 0 -20 8
0 8 -6 0 -20 -8 -14 -8 -20 0 -20 8 0 8 -6 0 -20 -8 -14 -8 -20 0 -20 8 0 8
-6 0 -20 -8 -14 -8 -20 0 -20 8 0 8 -6 0 -20 -8 -14 -8 -20 0 -20 8 0 8 -6 0
-20 -8 -14 -8 -20 0 -20 8 0 8 -6 0 -20 -8 -14 -8 -20 0 -20 8 0 8 -6 0 -20
-8 -14 -8 -20 0 -20 8 0 8 -6 0 -20 -8 -14 -8 -20 0 -20 8 0 8 -6 0 -20 -8
-14 -8 -20 0 -20 8 0 8 -6 0 -20 -8 -14 -8 -20 0 -20 8 0 8 -6 0 -20 -8 -14
-8 -20 0 -20 8 0 8 -6 0 -20 -8 -14 -8 -20 0 -20 8 0 8 -6 0 -20 -8 -14 -8
-20 0 -20 8 0 8 -6 0 -20 -8 -14 -8 -20 0 -20 8 0 8 -6 0 -20 -8 -14 -8 -20 0
-20 8 0 8 -6 0 -20 -8 -14 -8 -20 0 -20 8 0 8 -6 0 -20 -8 -14 -8 -20 0 -20 8
0 8 -6 0 -20 -8 -14 -8 -20 0 -20 8 0 8 -6 0 -20 -8 -14 -8 -20 0 -20 8 0 8
-6 0 -20 -8 -14 -8 -20 0 -20 8 0 8 -6 0 -20 -8 -14 -8 -20 0 -20 8 0 8 -6 0
-20 -8 -14 -8 -20 0 -20 8 0 8 -6 0 -20 -8 -14 -8 -20 0 -20 8 0 8 -6 0 -20
-8 -14 -8 -20 0 -20 8 0 8 -6 0 -20 -8 -14 -8 -20 0 -20 8 0 8 -6 0 -20 -8
-14 -8 -20 0 -20 8 0 8 -6 0 -20 -8 -14 -8 -20 0 -20 8 0 8 -6 0 -20 -8 -14
-8 -20 0 -20 8 0 8 -6 0 -20 -8 -14 -8 -20 0 -20 8 0 8 -6 0 -20 -8 -14 -8
-20 0 -20 8 0 8 -6 0 -20 -8 -14 -8 -20 0 -20 8 0 8 -6 0 -20 -8 -14 -8 -20 0
-20 8 0 8 -6 0 -20 -8 -14 -8 -20 0 -20 8 0 8 -6 0 -20 -8 -14 -8 -20 0 -20 8
0 8 -6 0 -20 -8 -14 -8 -20 0 -20 8 0 8 -6 0 -20 -8 -14 -8 -20 0 -20 8 0 8
-6 0 -20 -8 -14 -8 -20 0 -20 8 0 8 -6 0 -20 -8 -14 -8 -20 0 -20 8 0 8 -6 0
-20 -8 -14 -8 -20 0 -20 8 0 8 -6 0 -20 -8 -14 -8 -20 0 -20 8 0 8 -6 0 -20
-8 -14 -8 -20 0 -20 8 0 8 -6 0 -20 -8 -14 -8 -20 0 -20 8 0 8 -6 0 -20 -8
-14 -8 -20 0 -20 8 0 8 -6 0 -20 -8 -14 -8 -20 0 -20 8 0 8 -6 0 -20 -8 -14
-8 -20 0 -20 8 0 8 -6 0 -20 -8 -14 -8 -20 0 -20 8 0 8 -6 0 -20 -8 -14 -8
-20 0 -20 8 0 8 -6 0 -20 -8 -14 -8 -20 0 -20 8 0 8 -6 0 -20 -8 -14 -8 -20 0
-20 8 0 8 -6 0 -20 -8 -14 -8 -20 0 -20 8 0 8 -6 0 -20 -8 -14 -8 -20 0 -20 8
0 8 -6 0 -20 -8 -14 -8 -20 0 -20 8 0 8 -6 0 -20 -8 -14 -8 -20 0 -20 8 0 8
-6 0 -20 -8 -14 -8 -20 0 -20 8 0 8 -6 0 -20 -8 -14 -8 -20 0 -20 8 0 8 -6 0
-20 -8 -14 -8 -20 0 -20 8 0 8 -6 0 -20 -8 -14 -8 -20 0 -20 8 0 8 -6 0 -20
-8 -14 -8 -20 0 -20 8 0 8 -6 0 -20 -8 -14 -8 -20 0 -20 8 0 8 -6 0 -20 -8
-14 -8 -20 0 -20 8 0 8 -6 0 -20 -8 -14 -8 -20 0 -20 8 0 8 -6 0 -20 -8 -14
-8 -20 0 -20 8 0 8 -6 0 -20 -8 -14 -8 -20 0 -20 8 0 8 -6 0 -20 -8 -14 -8
-20 0 -20 8 0 8 -6 0 -20 -8 -14 -8 -20 0 -20 8 0 8 -6 0 -20 -8 -14 -8 -20 0
-20 8 0 8 -6 0 -20 -8 -14 -8 -20 0 -20 8 0 8 -6 0 -20 -8 -14 -8 -20 0 -20 8
0 8 -6 0 -20 -8 -14 -8 -20 0 -20 8 0 8 -6 0 -20 -8 -14 -8 -20 0 -20 8 0 8
-6 0 -20 -8 -14 -8 -20 0 -20 8 0 8 -6 0 -20 -8 -14 -8 -20 0 -20 8 0 8 -6 0
-20 -8 -14 -8 -20 0 -20 8 0 8 -6 0 -20 -8 -14 -8 -20 0 -20 8 0 8 -6 0 -20
-8 -14 -8 -20 0 -20 8 0 8 -6 0 -20 -8 -14 -8 -20 0 -20 8 0 8 -6 0 -20 -8
-14 -8 -20 0 -20 8 0 8 -6 0 -20 -8 -14 -8 -20 0 -20 8 0 8 -6 0 -20 -8 -14
-8 -20 0 -20 8 0 8 -6 0 -20 -8 -14 -8 -20 0 -20 8 0 8 -6 0 -20 -8 -14 -8
-20 0 -20 8 0 8 -6 0 -20 -8 -14 -8 -20 0 -20 8 0 8 -6 0 -20 -6 -12 -7 -20
-1 -20 5 0 7 -8 4 -19 -4 -17 6 -18 236 -19 l241 0 0 4432 c0 3591 -3 4441
-13 4486 -27 115 -138 267 -219 301 -15 6 -28 15 -28 20 0 5 -9 9 -19 9 -11 0
-22 4 -25 9 -3 4 -20 12 -38 16 -18 4 -40 9 -48 12 -22 6 -162 11 -185 6z"/>
</g>
</svg>
